<svg width="23" height="22" viewBox="0 0 43 42" fill="#D3D3D3" xmlns="http://www.w3.org/2000/svg">
<path d="M26.4244 21.0227L41.2143 6.26722C41.862 5.61954 42.2259 4.74111 42.2259 3.82517C42.2259 2.90922 41.862 2.03079 41.2143 1.38311C40.5667 0.735441 39.6882 0.371582 38.7723 0.371582C37.8563 0.371582 36.9779 0.735441 36.3302 1.38311L21.5747 16.173L6.81923 1.38311C6.17156 0.735441 5.29313 0.371582 4.37718 0.371582C3.46123 0.371582 2.5828 0.735441 1.93513 1.38311C1.28745 2.03079 0.923594 2.90922 0.923594 3.82517C0.923594 4.74111 1.28745 5.61954 1.93513 6.26722L16.725 21.0227L1.93513 35.7782C1.61275 36.098 1.35687 36.4784 1.18225 36.8975C1.00763 37.3166 0.917725 37.7662 0.917725 38.2203C0.917725 38.6743 1.00763 39.1239 1.18225 39.543C1.35687 39.9622 1.61275 40.3426 1.93513 40.6623C2.25487 40.9847 2.63529 41.2406 3.05442 41.4152C3.47356 41.5898 3.92312 41.6797 4.37718 41.6797C4.83123 41.6797 5.2808 41.5898 5.69993 41.4152C6.11907 41.2406 6.49948 40.9847 6.81923 40.6623L21.5747 25.8724L36.3302 40.6623C36.65 40.9847 37.0304 41.2406 37.4495 41.4152C37.8687 41.5898 38.3182 41.6797 38.7723 41.6797C39.2263 41.6797 39.6759 41.5898 40.095 41.4152C40.5142 41.2406 40.8946 40.9847 41.2143 40.6623C41.5367 40.3426 41.7926 39.9622 41.9672 39.543C42.1418 39.1239 42.2317 38.6743 42.2317 38.2203C42.2317 37.7662 42.1418 37.3166 41.9672 36.8975C41.7926 36.4784 41.5367 36.098 41.2143 35.7782L26.4244 21.0227Z" fill="#D3D3D3"/>
</svg>
