<svg width="31" height="41" viewBox="0 0 31 41" fill="none" xmlns="http://www.w3.org/2000/svg">
<path d="M29.2486 19.7986L10.1838 0.733826C9.46473 0.014726 8.23333 0.523893 8.23333 1.54223V16.8L2.29566 10.8623C1.59536 10.162 0.399994 10.6571 0.399994 11.6472V28.8195C0.399994 29.6498 0.73056 30.4472 1.31806 31.0347L9.66526 39.3819C10.2528 39.9694 11.0502 40.3 11.8805 40.3H18.6156C19.4867 40.3 20.3186 39.9365 20.9124 39.2989L29.3285 30.2357C29.8674 29.6561 30.1667 28.8931 30.1667 28.1035V22.0154C30.1667 21.1835 29.8361 20.3861 29.2486 19.7986ZM23.1167 26.3347C23.1167 26.7499 22.9522 27.1494 22.6576 27.4424L16.391 33.709C15.7784 34.3216 14.7867 34.3216 14.1757 33.709L7.90903 27.4424C7.61449 27.1478 7.44999 26.7499 7.44999 26.3347V24.4986C7.44999 24.0834 7.61449 23.6839 7.90903 23.391L10.259 21.041C10.8716 20.4284 11.8633 20.4284 12.4743 21.041L15.2833 23.85L18.0924 21.041C18.7049 20.4284 19.6966 20.4284 20.3076 21.041L22.6576 23.391C22.9522 23.6855 23.1167 24.0834 23.1167 24.4986V26.3347Z" fill="#FA005A"/>
</svg>
