<svg width="34" height="34" viewBox="0 0 34 34" fill="none" xmlns="http://www.w3.org/2000/svg">
<path d="M3.79997 0.866669C2.1793 0.866669 0.866638 2.17934 0.866638 3.8V18.4929C0.866638 19.6258 1.62487 20.6185 2.71782 20.9166V20.9166C3.8182 21.2167 4.95014 20.6887 5.80834 19.9374C6.20428 19.5908 6.64725 19.2966 7.12679 19.0656C8.13239 18.5813 9.17021 18.0821 9.8847 17.2246L11.8948 14.8122C12.4059 14.1987 12.6 13.3985 12.6 12.6V12.6C12.6 7.73947 16.5394 3.8 21.4 3.8C26.2605 3.8 30.2 7.73947 30.2 12.6C30.2 17.4605 26.2605 21.4 21.4 21.4V21.4C20.6015 21.4 19.8012 21.5941 19.1878 22.1052L17.6145 23.4161C16.2163 24.5811 15.4509 26.3415 14.375 27.8094C13.3127 29.2586 11.6035 30.2 9.66664 30.2C6.42677 30.2 3.79997 27.5732 3.79997 24.3333V24.3333C3.79997 24.2873 3.77777 24.2476 3.73339 24.2355L2.72452 23.9604C1.78881 23.7053 0.866638 24.4097 0.866638 25.3796V30.2C0.866638 31.8207 2.1793 33.1333 3.79997 33.1333H30.2C31.8206 33.1333 33.1333 31.8207 33.1333 30.2V3.8C33.1333 2.17934 31.8206 0.866669 30.2 0.866669H3.79997ZM21.4 6.73334C18.1773 6.73334 15.5333 9.3773 15.5333 12.6C15.5333 15.8227 18.1773 18.4667 21.4 18.4667C24.6227 18.4667 27.2666 15.8227 27.2666 12.6C27.2666 9.3773 24.6227 6.73334 21.4 6.73334ZM21.4 9.66667C23.0374 9.66667 24.3333 10.9626 24.3333 12.6C24.3333 14.2374 23.0374 15.5333 21.4 15.5333C19.7626 15.5333 18.4666 14.2374 18.4666 12.6C18.4666 10.9626 19.7626 9.66667 21.4 9.66667ZM9.66664 20.6667V20.6667C8.1294 20.6667 8.49062 22.4922 9.97373 22.8965L10.0534 22.9182C10.8351 23.1324 11.2973 23.9383 11.0846 24.7201C10.9042 25.3713 10.312 25.8 9.66664 25.8C9.53904 25.8 9.41045 25.7836 9.27992 25.7484V25.7484C7.75794 25.3338 6.507 26.7589 7.88118 27.5334C8.40825 27.8305 9.0168 28 9.66664 28C11.6921 28 13.3333 26.3588 13.3333 24.3333C13.3333 22.3079 11.6921 20.6667 9.66664 20.6667Z" fill="white"/>
</svg>
