<svg width="92" height="92" viewBox="0 0 92 92" fill="none" xmlns="http://www.w3.org/2000/svg">
<g filter="url(#filter0_d_20_118)">
<path d="M87.2016 48.424C87.5041 48.5941 87.5647 48.9548 87.5768 49.0922L87.5798 49.147L87.2436 70.8381C87.2436 79.4905 80.5395 86.5464 72.0978 86.979L71.2756 87H20.6823C12.1337 87 5.16247 80.2145 4.73512 71.6702L4.71436 70.8381L4.42021 49.147C4.42021 49.147 4.42021 48.6366 4.7984 48.424C5.13457 48.2113 5.55478 48.4665 5.5968 48.5091C14.085 54.2083 24.2961 57.9936 35.0115 59.5672C36.5243 59.7799 38.037 58.8017 38.4572 57.2705C39.3239 54.0009 42.0003 51.778 45.2745 51.5129L45.937 51.4863H46.063C49.6348 51.4863 52.6183 53.783 53.5428 57.2705C53.963 58.8017 55.4757 59.7799 56.9885 59.5672C67.7038 57.9936 77.915 54.2083 86.4032 48.5091C86.4032 48.5091 86.4872 48.4665 86.5713 48.424C86.7394 48.3389 86.9915 48.2964 87.2016 48.424ZM45.979 57.5682C44.3997 57.5682 43.0676 58.7833 42.8565 60.329L42.8274 60.7581V66.2447C42.8274 68.031 44.2561 69.4345 45.979 69.4345C47.5968 69.4345 48.8968 68.2552 49.1023 66.6827L49.1306 66.2447V60.7581C49.1306 59.0143 47.7439 57.5682 45.979 57.5682ZM51.3997 3C57.7028 3 62.8714 7.80605 63.6698 13.9731H71.99C80.8144 13.9731 88 21.246 88 30.1776C88 30.1776 87.7479 33.9586 87.6638 39.224C87.6554 39.6408 87.4537 40.0491 87.1218 40.2958C85.1005 41.7887 83.2516 43.0221 83.0835 43.1071C76.108 47.7856 68.0022 51.0775 59.3669 52.715C58.8038 52.8256 58.2491 52.5321 57.9634 52.0302C55.543 47.8366 51.0215 45.1061 45.979 45.1061C40.9701 45.1061 36.4066 47.8069 33.9148 52.0047C33.6248 52.4981 33.0785 52.783 32.5197 52.6767C23.9558 51.035 15.8499 47.7473 8.91646 43.1497L4.88244 40.3426C4.54627 40.1299 4.33617 39.7472 4.33617 39.3218C4.21011 37.1527 4 30.1776 4 30.1776C4 21.246 11.1856 13.9731 20.01 13.9731H28.2881C29.0865 7.80605 34.2551 3 40.5583 3H51.3997ZM51.3997 9.37971H40.5583C37.7429 9.37971 35.3477 11.3362 34.6753 13.9731H57.2826C56.6103 11.3362 54.2151 9.37971 51.3997 9.37971Z" fill="#FFFE9A"/>
<path d="M63.2304 14.4731L63.174 14.0373C62.4062 8.10666 57.4388 3.5 51.3997 3.5H40.5583C34.5192 3.5 29.5518 8.10666 28.784 14.0373L28.7276 14.4731H28.2881H20.01C11.4699 14.4731 4.50402 21.5124 4.5 30.1701L4.50038 30.1825L4.50216 30.2412L4.50904 30.4662C4.51503 30.661 4.52372 30.9418 4.53455 31.2856C4.55621 31.9732 4.5864 32.9124 4.62052 33.9194C4.68887 35.9362 4.77272 38.2156 4.83533 39.2928L4.83617 39.3073V39.3218C4.83617 39.5827 4.96425 39.8027 5.14974 39.92L5.15902 39.9259L5.16803 39.9322L9.19743 42.736C16.0728 47.2942 24.1146 50.5563 32.6138 52.1856C32.9397 52.2473 33.2873 52.0856 33.4837 51.7514L33.4848 51.7495C36.0644 47.4039 40.789 44.6061 45.979 44.6061C51.2044 44.6061 55.8889 47.4357 58.3964 51.7803L58.3979 51.7828C58.5913 52.1226 58.9448 52.2883 59.2705 52.2244L59.2737 52.2237C67.8454 50.5983 75.8878 47.3313 82.805 42.6919L82.8304 42.6748L82.8578 42.661C82.8563 42.6618 82.8575 42.661 82.862 42.6583C82.8725 42.652 82.901 42.6349 82.9546 42.6009C83.0216 42.5584 83.1128 42.4992 83.2257 42.4247C83.4511 42.2758 83.7586 42.0688 84.1246 41.8173C84.8565 41.3144 85.8191 40.6363 86.8242 39.894C87.0254 39.7441 87.1581 39.4842 87.1639 39.215C87.1639 39.2146 87.1639 39.2143 87.1639 39.2139L87.6638 39.224C87.7479 33.9586 88 30.1776 88 30.1776L63.2304 14.4731ZM63.2304 14.4731H63.6698H71.99C80.5272 14.4731 87.4913 21.5076 87.5 30.1613L63.2304 14.4731ZM86.9421 48.8514L86.9492 48.8557L86.9565 48.8598C86.983 48.8747 87.0117 48.904 87.0377 48.9653C87.063 49.0252 87.074 49.0894 87.078 49.1294L87.0796 49.157L86.7437 70.8303H86.7436V70.8381C86.7436 79.2261 80.2476 86.0573 72.0788 86.4793L71.2691 86.5H20.6823C12.4088 86.5 5.65224 79.9333 5.23481 71.6515L5.21431 70.8313L5.2142 70.8256L4.92029 49.1503C4.92029 49.1503 4.9203 49.1502 4.9203 49.1502C4.92056 49.1451 4.92123 49.1351 4.92282 49.1213C4.92614 49.0925 4.93286 49.0531 4.94552 49.0118C4.97319 48.9216 5.01036 48.8784 5.04347 48.8598L5.05476 48.8535L5.0657 48.8465C5.06687 48.8458 5.09193 48.8296 5.17344 48.8524C5.20992 48.8626 5.24396 48.8774 5.2689 48.8905C5.27028 48.8912 5.27159 48.8919 5.27283 48.8926L5.27641 48.8962L5.31808 48.9242C13.8738 54.6687 24.1567 58.4785 34.9389 60.0619L34.9419 60.0624C36.7054 60.3103 38.4531 59.1747 38.9394 57.4029L38.9405 57.3986C39.7526 54.335 42.2486 52.2636 45.3049 52.0121L45.947 51.9863H46.063C49.4065 51.9863 52.1927 54.1288 53.0594 57.3986L53.0606 57.4029C53.5469 59.1747 55.2945 60.3103 57.0581 60.0624L57.0611 60.0619C67.8325 58.48 78.1057 54.6763 86.6563 48.9413L86.6815 48.9286L86.7971 48.8701C86.8252 48.8559 86.862 48.8452 86.8948 48.8437C86.9246 48.8422 86.9372 48.8484 86.9421 48.8514ZM42.3611 60.2614L42.3588 60.2782L42.3577 60.2952L42.3286 60.7243L42.3274 60.7412V60.7581V66.2447C42.3274 68.3058 43.9786 69.9345 45.979 69.9345C47.8533 69.9345 49.3608 68.5635 49.598 66.7474L49.6002 66.7312L49.6012 66.7149L49.6295 66.2769L49.6306 66.2608V66.2447V60.7581C49.6306 58.7483 48.03 57.0682 45.979 57.0682C44.1399 57.0682 42.6047 58.4778 42.3611 60.2614ZM34.1908 13.8496L34.0319 14.4731H34.6753H57.2826H57.9261L57.7671 13.8496C57.0402 10.9984 54.451 8.87971 51.3997 8.87971H40.5583C37.5069 8.87971 34.9178 10.9984 34.1908 13.8496Z" stroke="#B0B0B0"/>
</g>
<defs>
<filter id="filter0_d_20_118" x="0" y="0" width="92" height="92" filterUnits="userSpaceOnUse" color-interpolation-filters="sRGB">
<feFlood flood-opacity="0" result="BackgroundImageFix"/>
<feColorMatrix in="SourceAlpha" type="matrix" values="0 0 0 0 0 0 0 0 0 0 0 0 0 0 0 0 0 0 127 0" result="hardAlpha"/>
<feOffset dy="1"/>
<feGaussianBlur stdDeviation="2"/>
<feComposite in2="hardAlpha" operator="out"/>
<feColorMatrix type="matrix" values="0 0 0 0 1 0 0 0 0 0.772549 0 0 0 0 0 0 0 0 1 0"/>
<feBlend mode="normal" in2="BackgroundImageFix" result="effect1_dropShadow_20_118"/>
<feBlend mode="normal" in="SourceGraphic" in2="effect1_dropShadow_20_118" result="shape"/>
</filter>
</defs>
</svg>
