<svg width="33" height="29" viewBox="0 0 33 29" fill="none" xmlns="http://www.w3.org/2000/svg">
<path d="M16.5 0.933334C11.3373 0.933334 4.6364 2.22689 4.6364 2.22689L4.61954 2.24616C2.26816 2.62222 0.466675 4.64274 0.466675 7.1V14.5V14.5024V21.9V21.9024C0.468969 23.076 0.889548 24.2103 1.65289 25.1017C2.41624 25.993 3.47234 26.5831 4.63158 26.7659L4.6364 26.7731C4.6364 26.7731 11.3373 28.0691 16.5 28.0691C21.6627 28.0691 28.3636 26.7731 28.3636 26.7731L28.366 26.7707C29.5265 26.5883 30.5838 25.9978 31.3478 25.1053C32.1117 24.2129 32.5321 23.0772 32.5333 21.9024V21.9V14.5024V14.5V7.1C32.5316 5.92603 32.1113 4.79114 31.3479 3.89926C30.5845 3.00739 29.5281 2.41698 28.3684 2.23412L28.3636 2.22689C28.3636 2.22689 21.6627 0.933334 16.5 0.933334ZM12.8 8.82474L22.6667 14.5L12.8 20.1753V8.82474Z" fill="white"/>
</svg>
